# xmcd CD database file
#
# Track frame offsets:
#	150
#	36371
#	63224
#	82398
#	135923
#	164251
#	191372
#	232179
#	263632
#	300602
#
# Disc length: 4745 seconds
#
# Revision: 0
# Processed by: cddbd v1.5.2PL0 Copyright (c) Steve Scherf et al.
# Submitted via: CDex 1.99.1
#
DISCID=8212870a
DTITLE=Hawkins, Coleman (1904-1969) - Coleman Hawkins 1959 with the Red Garland Trio (1-5) - 1960 with Allstars feat. Joe Thomas and Vic Dickenson (6-10)
DYEAR=1960
DGENRE=Jazz
TTITLE0=It's A Blue World
TTITLE1=I Want To Be Loved
TTITLE2=Red Beans
TTITLE3=Bean's Blues
TTITLE4=Blues For Ron
TTITLE5=You Blew Oit The Flame In My Heart
TTITLE6=More Bounce To The Vonce
TTITLE7=I'm Beginning To See The Light
TTITLE8=Cool Blue
TTITLE9=Some Streching
EXTD=YEAR: 1960
EXTT0=
EXTT1=
EXTT2=
EXTT3=
EXTT4=
EXTT5=
EXTT6=
EXTT7=
EXTT8=
EXTT9=
PLAYORDER=
